<?xml version="1.0" standalone="no"?>
<!DOCTYPE svg PUBLIC "-//W3C//DTD SVG 20010904//EN"
 "http://www.w3.org/TR/2001/REC-SVG-20010904/DTD/svg10.dtd">
<svg version="1.0" xmlns="http://www.w3.org/2000/svg"
 width="600.000000pt" height="600.000000pt" viewBox="0 0 600.000000 600.000000"
 preserveAspectRatio="xMidYMid meet">
<metadata>
Created by potrace 1.10, written by Peter Selinger 2001-2011
</metadata>
<g transform="translate(0.000000,600.000000) scale(0.100000,-0.100000)"
fill="#000000" stroke="none">
<path d="M2937 5233 c-1 -1 -65 -6 -142 -12 -128 -10 -188 -20 -315 -52 -25
-6 -58 -13 -75 -16 -16 -2 -39 -8 -50 -13 -11 -5 -36 -13 -55 -19 -42 -12
-115 -37 -150 -52 -14 -6 -38 -17 -55 -24 -181 -79 -372 -188 -469 -269 -27
-23 -28 -27 -22 -79 6 -43 13 -59 31 -71 13 -9 26 -24 30 -35 3 -11 20 -35 38
-54 18 -19 57 -67 87 -107 73 -98 88 -110 127 -110 33 0 96 33 122 64 7 9 18
16 23 16 5 0 24 11 41 24 40 29 178 96 199 96 8 0 21 7 28 15 7 8 23 15 35 15
13 0 36 7 51 15 16 8 37 15 47 15 10 0 28 5 40 12 12 6 40 15 62 19 22 5 81
18 130 30 72 17 123 22 255 23 91 0 197 -4 235 -11 39 -6 97 -16 130 -22 133
-21 199 -40 303 -87 29 -13 57 -24 63 -24 20 0 89 -41 89 -52 0 -7 -16 -29
-36 -49 -33 -33 -36 -41 -30 -73 4 -20 10 -37 14 -37 4 -1 172 -3 373 -4 393
-3 406 -2 423 47 10 28 -42 162 -179 463 -34 72 -74 171 -89 218 -6 19 -50 40
-75 35 -9 -2 -27 -26 -41 -53 -14 -27 -33 -51 -43 -53 -10 -2 -69 21 -130 51
-249 121 -439 173 -757 207 -91 10 -258 18 -263 13z m348 -137 c55 -8 145 -25
200 -36 55 -12 114 -24 130 -27 17 -3 39 -12 50 -19 11 -8 27 -14 36 -14 10 0
30 -6 46 -14 15 -7 44 -20 63 -28 87 -38 178 -84 210 -108 50 -38 67 -42 107
-25 43 18 77 19 90 3 5 -7 15 -31 22 -53 8 -22 26 -67 41 -100 91 -200 96
-226 51 -253 -25 -15 -54 -17 -215 -16 -210 0 -207 -1 -204 73 2 38 -2 47 -33
72 -19 15 -47 31 -64 35 -16 3 -50 17 -74 30 -24 13 -51 24 -60 24 -9 0 -29 9
-46 20 -16 11 -38 20 -47 20 -10 0 -32 6 -50 14 -114 49 -384 84 -618 81 -161
-3 -299 -24 -415 -64 -16 -6 -55 -17 -85 -26 -68 -20 -105 -34 -235 -90 -16
-7 -37 -16 -45 -19 -35 -15 -163 -101 -179 -120 -19 -23 -37 -20 -60 12 -45
60 -58 77 -118 146 -35 39 -63 79 -63 89 0 10 12 23 28 30 15 7 54 30 87 51
57 38 183 103 270 141 22 9 54 23 70 30 49 21 161 61 215 77 67 19 256 57 360
72 130 18 393 14 535 -8z"/>
<path d="M4011 4018 c-42 -4 -81 -14 -91 -23 -9 -8 -29 -15 -44 -15 -47 0
-156 -81 -289 -213 -79 -78 -133 -125 -140 -120 -7 3 -26 17 -43 30 -29 21
-40 23 -167 23 -115 0 -141 -3 -169 -19 -18 -10 -51 -22 -73 -26 -22 -4 -51
-13 -65 -20 -14 -7 -51 -24 -82 -39 -31 -14 -60 -31 -63 -36 -4 -6 -25 -20
-48 -31 -53 -27 -217 -187 -266 -258 -80 -119 -131 -198 -153 -241 -12 -25
-33 -62 -45 -82 -13 -21 -23 -44 -23 -51 0 -8 -9 -26 -20 -40 -11 -14 -20 -37
-20 -51 0 -14 -9 -40 -20 -58 -11 -18 -20 -49 -20 -69 0 -20 -9 -62 -21 -95
-28 -80 -40 -411 -17 -465 9 -19 20 -46 26 -61 18 -44 81 -107 131 -129 40
-19 65 -22 191 -22 107 0 159 4 199 16 30 10 71 17 91 17 20 0 45 7 56 15 10
8 26 15 35 15 28 0 240 111 278 145 20 18 46 36 59 39 29 10 272 251 272 271
0 9 6 18 14 21 7 3 22 21 32 40 10 19 22 34 26 34 5 0 8 8 8 18 0 11 9 29 20
42 11 13 20 31 20 41 0 10 4 20 9 23 14 9 79 148 84 181 3 17 10 44 15 60 29
79 45 220 38 334 -3 63 -10 119 -14 125 -5 6 -17 38 -27 71 -14 44 -30 72 -62
102 -24 23 -43 45 -43 49 0 18 184 180 267 235 l95 63 108 -1 c106 -2 108 -1
135 27 22 23 27 38 29 82 l1 53 -70 0 c-38 1 -103 -3 -144 -7z m-643 -478 c42
-16 40 -35 -8 -81 -22 -21 -40 -45 -40 -53 0 -8 -20 -35 -45 -60 -25 -26 -45
-52 -45 -59 0 -7 -13 -28 -30 -47 -16 -19 -29 -39 -30 -44 0 -6 -20 -35 -43
-65 -24 -31 -56 -74 -70 -97 -14 -22 -39 -56 -57 -75 -17 -19 -39 -47 -47 -64
-9 -16 -30 -48 -48 -70 -18 -22 -40 -54 -48 -71 -9 -17 -23 -34 -32 -37 -20
-8 -20 -66 1 -95 19 -28 59 -45 85 -37 16 5 66 69 104 133 5 9 26 37 45 62 37
47 88 119 105 148 6 9 30 44 55 77 25 33 61 84 80 113 18 28 37 52 42 52 4 0
8 6 8 14 0 8 16 33 35 56 32 38 74 115 89 163 10 30 86 14 86 -18 0 -8 10 -43
21 -76 19 -54 21 -78 17 -184 -4 -92 -9 -128 -21 -146 -10 -13 -17 -39 -17
-58 0 -29 -30 -110 -61 -161 -4 -8 -27 -52 -50 -97 -23 -45 -54 -95 -68 -110
-15 -15 -48 -56 -75 -90 -26 -35 -57 -68 -69 -75 -12 -6 -46 -34 -75 -62 -30
-28 -61 -55 -70 -60 -9 -5 -36 -26 -59 -48 -24 -21 -49 -38 -57 -38 -8 0 -45
-16 -83 -36 -129 -67 -202 -84 -380 -87 -144 -2 -160 0 -185 18 -47 35 -53 57
-52 204 1 182 16 321 37 351 9 14 17 42 17 63 0 24 8 49 20 64 11 14 20 34 20
43 0 10 18 50 40 89 22 39 40 76 40 82 0 6 14 27 30 46 17 18 30 39 30 46 0 7
22 37 48 68 26 31 66 81 89 111 40 53 171 168 190 168 5 0 18 9 29 21 20 23
112 69 136 69 8 0 27 9 41 20 17 13 40 20 70 20 25 0 56 6 69 13 29 15 133 8
186 -13z"/>
<path d="M1003 3703 c-22 -20 -129 -145 -159 -184 -39 -54 -173 -216 -238
-288 -69 -77 -77 -100 -50 -139 13 -20 22 -22 68 -17 48 4 53 3 68 -23 12 -21
14 -40 8 -90 -8 -65 10 -388 23 -409 4 -6 11 -37 16 -70 18 -108 89 -343 136
-448 109 -240 160 -329 267 -463 21 -26 38 -50 38 -55 0 -10 61 -76 220 -236
123 -123 233 -211 322 -257 18 -9 49 -29 69 -45 19 -15 55 -35 80 -45 24 -9
53 -25 64 -35 11 -9 39 -23 63 -30 23 -7 47 -18 53 -26 6 -7 19 -13 28 -13 9
0 29 -7 46 -16 111 -58 210 -78 246 -51 34 26 87 156 106 262 3 17 12 39 19
50 8 11 14 30 14 44 0 13 7 33 16 42 15 17 15 22 -5 64 -17 37 -30 50 -67 65
-25 11 -52 20 -59 20 -7 0 -26 6 -42 14 -15 7 -55 26 -88 41 -132 59 -253 131
-365 216 -69 52 -233 219 -268 272 -8 12 -20 27 -27 32 -11 9 -24 27 -97 139
-97 147 -174 356 -238 646 -14 62 -28 307 -19 322 4 6 34 7 77 2 76 -7 102 2
102 36 0 16 -29 86 -50 120 -5 8 -68 136 -141 283 -73 147 -140 272 -150 278
-27 14 -65 11 -86 -8z m71 -188 c15 -14 36 -48 45 -76 10 -27 23 -55 30 -62 6
-6 11 -18 11 -26 0 -8 6 -22 14 -30 22 -25 76 -132 76 -150 0 -21 -26 -43 -65
-56 -44 -15 -55 -57 -49 -195 6 -155 23 -296 40 -348 8 -23 14 -57 14 -75 0
-18 4 -37 8 -42 5 -6 19 -44 31 -85 26 -87 47 -143 67 -183 8 -16 14 -34 14
-42 0 -7 7 -18 15 -25 8 -7 15 -20 15 -30 0 -10 7 -23 15 -30 8 -7 15 -19 15
-27 0 -8 14 -32 30 -53 17 -21 30 -41 30 -45 0 -4 14 -23 30 -42 17 -18 30
-40 30 -48 0 -8 4 -15 9 -15 5 0 27 -24 49 -52 104 -137 330 -341 437 -393 22
-11 56 -32 75 -46 19 -14 56 -34 82 -44 26 -10 53 -24 59 -31 6 -8 24 -14 40
-14 15 0 30 -4 34 -9 3 -5 29 -17 59 -25 81 -24 83 -30 48 -138 -17 -51 -36
-119 -43 -152 -13 -60 -30 -77 -59 -58 -9 5 -62 29 -116 52 -135 57 -265 123
-349 178 -38 25 -101 66 -139 90 -66 44 -288 255 -353 337 -195 245 -266 362
-357 595 -10 25 -24 59 -30 75 -37 86 -87 282 -107 415 -5 36 -14 137 -18 225
-7 129 -6 166 5 194 23 56 18 90 -20 125 -18 17 -36 44 -40 60 -6 25 0 36 51
91 32 34 76 85 98 114 79 102 89 111 136 120 3 0 18 -10 33 -24z"/>
<path d="M5091 3430 c-14 -13 -39 -20 -65 -20 -22 -1 -70 -7 -106 -15 -36 -8
-93 -14 -126 -15 -112 0 -144 -59 -110 -204 21 -87 17 -329 -7 -496 -21 -137
-84 -356 -114 -391 -7 -8 -13 -22 -13 -30 0 -15 -54 -121 -115 -228 -60 -106
-156 -220 -291 -349 -154 -147 -174 -157 -194 -94 -22 67 -62 90 -103 60 -15
-13 -77 -136 -77 -156 0 -5 -7 -15 -15 -22 -8 -7 -15 -18 -15 -25 0 -11 -51
-122 -79 -175 -5 -8 -18 -37 -30 -65 -12 -27 -26 -57 -32 -65 -28 -45 -69
-146 -69 -170 0 -16 10 -36 26 -51 l26 -24 376 0 376 0 7 34 c6 30 3 40 -27
76 -19 23 -34 47 -34 53 0 12 69 72 83 72 14 0 96 74 236 210 140 137 311 352
311 392 0 7 16 32 35 56 18 24 39 60 46 80 7 20 20 47 30 60 10 13 23 40 30
60 6 20 17 44 24 52 8 8 17 29 21 45 4 17 10 35 15 40 6 9 49 133 79 230 5 17
14 61 20 99 6 38 15 77 20 87 6 10 10 37 10 61 0 24 7 84 15 133 19 116 19
332 0 459 -8 55 -15 114 -15 132 0 49 -16 76 -60 102 -47 27 -58 27 -89 2z
m35 -122 c13 -21 18 -118 18 -358 1 -228 -11 -357 -43 -463 -15 -52 -42 -160
-45 -182 -1 -11 -10 -37 -19 -57 -9 -21 -17 -42 -17 -48 0 -6 -4 -18 -9 -28
-6 -9 -24 -48 -41 -87 -17 -38 -39 -83 -47 -100 -9 -16 -31 -59 -50 -95 -33
-63 -91 -156 -165 -262 -44 -64 -246 -271 -343 -351 -39 -32 -81 -67 -94 -78
-13 -11 -38 -26 -55 -33 -54 -24 -76 -52 -76 -100 0 -25 -6 -48 -14 -55 -9 -8
-73 -10 -211 -7 -177 3 -200 5 -212 21 -16 23 -7 90 18 127 11 14 19 29 19 32
0 4 20 48 43 99 24 50 49 104 55 120 10 23 17 27 51 27 22 0 44 -6 51 -15 7
-8 18 -15 24 -15 24 0 84 38 128 81 25 24 76 71 113 104 86 76 134 123 164
160 76 92 130 169 156 221 17 32 32 61 35 64 18 16 50 70 50 84 0 8 14 37 30
63 17 26 30 57 30 69 0 12 7 27 15 34 8 7 15 25 15 40 0 15 6 33 14 39 8 6 16
24 19 39 3 15 15 65 26 112 51 210 70 587 35 688 -8 25 -13 51 -10 57 2 7 33
15 68 19 135 15 184 23 208 34 34 14 57 15 66 0z"/>
</g>
</svg>
