<?xml version="1.0" standalone="no"?>
<!DOCTYPE svg PUBLIC "-//W3C//DTD SVG 20010904//EN"
 "http://www.w3.org/TR/2001/REC-SVG-20010904/DTD/svg10.dtd">
<svg version="1.0" xmlns="http://www.w3.org/2000/svg"
 width="600.000000pt" height="600.000000pt" viewBox="0 0 600.000000 600.000000"
 preserveAspectRatio="xMidYMid meet">
<metadata>
Created by potrace 1.10, written by Peter Selinger 2001-2011
</metadata>
<g transform="translate(0.000000,600.000000) scale(0.100000,-0.100000)"
fill="#000000" stroke="none">
<path d="M2963 4612 c-17 -26 -42 -66 -55 -90 -24 -45 -28 -53 -68 -117 -14
-23 -30 -50 -37 -60 -42 -68 -161 -260 -175 -283 -10 -15 -22 -36 -27 -47 -5
-11 -20 -36 -33 -55 -13 -19 -27 -42 -31 -50 -4 -8 -16 -28 -27 -45 -11 -16
-24 -39 -30 -50 -13 -24 -27 -46 -63 -102 -15 -24 -27 -45 -27 -48 0 -3 -20
-34 -45 -71 -25 -36 -45 -70 -45 -75 0 -5 -7 -21 -16 -34 -9 -13 -13 -29 -9
-35 4 -6 53 -10 125 -10 65 0 121 -4 124 -9 3 -5 -5 -25 -19 -45 -14 -20 -25
-40 -25 -43 0 -4 -7 -14 -15 -23 -8 -9 -25 -35 -37 -57 -21 -37 -145 -241
-190 -311 -10 -15 -21 -34 -25 -42 -3 -8 -18 -33 -32 -55 -36 -56 -49 -77 -61
-100 -6 -11 -19 -33 -30 -50 -11 -16 -23 -37 -27 -45 -4 -8 -26 -43 -50 -78
-24 -35 -43 -68 -43 -73 0 -5 -7 -21 -16 -34 -33 -50 -19 -55 150 -55 104 0
157 -4 162 -11 4 -7 -1 -16 -10 -21 -9 -5 -16 -14 -16 -20 0 -5 -13 -30 -30
-55 -16 -24 -30 -46 -30 -48 0 -2 -12 -21 -26 -42 -14 -21 -30 -47 -35 -58 -6
-11 -15 -29 -22 -40 -24 -39 -62 -101 -74 -120 -7 -11 -51 -83 -98 -160 -48
-77 -92 -149 -98 -160 -7 -11 -23 -38 -37 -60 -14 -22 -29 -47 -33 -55 -4 -8
-18 -34 -31 -57 -13 -23 -20 -47 -16 -53 6 -10 117 -12 473 -11 l466 2 11 -21
c8 -16 11 -120 9 -362 -3 -288 -1 -341 11 -348 24 -15 637 -13 647 3 4 6 10
172 13 367 l5 355 487 5 c267 3 489 8 492 11 8 8 -18 60 -64 129 -20 31 -39
62 -43 70 -4 8 -15 27 -25 42 -9 15 -37 59 -62 98 -25 39 -53 83 -62 98 -10
15 -22 36 -28 47 -17 31 -31 55 -78 123 -23 35 -42 66 -42 68 0 3 -19 35 -43
72 -24 37 -54 85 -67 107 -13 22 -26 42 -29 45 -4 3 -12 15 -19 28 -17 30 -17
30 170 34 87 2 160 7 163 10 7 7 -29 81 -62 125 -12 17 -23 34 -23 37 0 3 -20
35 -45 72 -25 36 -45 67 -45 70 0 2 -12 23 -27 47 -15 23 -32 50 -38 59 -16
27 -128 208 -145 234 -8 13 -41 65 -73 116 -70 112 -73 118 -114 181 -18 28
-30 54 -27 59 3 4 47 8 98 8 52 0 108 3 125 6 27 6 30 9 25 33 -4 14 -18 44
-33 66 -14 22 -29 47 -34 55 -4 8 -15 27 -25 41 -9 15 -30 50 -47 78 -16 28
-33 51 -37 51 -5 0 -8 5 -8 10 0 6 -12 29 -27 53 -15 23 -32 50 -38 59 -9 16
-109 176 -145 233 -8 13 -42 67 -75 120 -33 53 -68 109 -77 123 -10 15 -21 34
-25 42 -4 8 -19 33 -34 55 -15 22 -35 56 -45 75 -29 53 -78 120 -89 120 -5 0
-24 -21 -42 -48z m95 -245 c27 -40 51 -79 55 -87 4 -8 15 -27 25 -42 9 -15 37
-59 62 -99 25 -39 53 -83 62 -98 10 -14 22 -35 28 -46 6 -11 18 -32 28 -47 9
-15 37 -59 62 -98 25 -39 53 -83 62 -98 10 -15 22 -36 28 -47 11 -20 18 -33
57 -94 12 -19 20 -38 17 -43 -3 -4 -243 -8 -535 -8 -517 0 -529 0 -529 19 0
11 5 23 11 26 5 4 15 17 20 28 5 12 15 31 22 42 7 11 24 38 37 60 14 23 30 50
37 60 6 11 51 83 98 160 48 77 92 149 98 160 7 10 23 37 37 60 13 22 30 49 37
60 7 11 17 29 23 40 6 11 19 34 30 50 11 17 23 37 27 45 8 17 45 70 50 70 1 0
24 -33 51 -73z m342 -1019 c30 -50 63 -102 72 -117 10 -14 22 -35 28 -46 6
-11 18 -32 28 -47 9 -15 37 -59 62 -98 25 -39 53 -83 62 -98 10 -15 22 -36 28
-47 5 -11 33 -54 60 -95 27 -41 55 -84 60 -95 13 -24 26 -46 63 -103 15 -23
25 -47 22 -52 -7 -11 -1727 -14 -1738 -3 -8 8 15 49 166 295 49 78 94 152 100
163 7 10 23 37 37 60 13 22 30 49 37 60 7 11 17 29 23 40 6 11 19 34 30 50 11
17 23 37 27 45 4 8 20 34 35 56 15 23 28 45 28 49 0 3 12 22 26 41 l26 34 332
0 331 0 55 -92z m222 -960 c13 -18 28 -40 32 -48 8 -17 21 -38 58 -96 14 -23
35 -56 45 -75 10 -19 37 -62 61 -97 23 -35 42 -65 42 -68 0 -2 20 -33 45 -70
25 -36 45 -67 45 -70 0 -2 12 -23 27 -47 15 -23 32 -50 38 -59 5 -9 29 -48 53
-87 47 -77 49 -86 26 -95 -9 -3 -501 -6 -1095 -6 -981 0 -1080 1 -1086 16 -3
9 -2 19 4 23 8 5 31 41 106 166 7 11 24 39 40 63 15 24 27 45 27 47 0 2 12 21
26 42 14 21 30 47 35 58 6 11 15 29 22 40 7 11 24 38 37 60 14 23 30 50 37 60
108 178 149 243 161 258 14 16 55 17 602 17 l588 0 24 -32z m-407 -1258 l0
-295 -215 0 -215 0 -3 285 c-1 157 0 291 3 298 3 10 51 12 217 10 l213 -3 0
-295z"/>
<path d="M4160 4204 c-25 -7 -56 -14 -69 -14 -13 0 -66 -21 -118 -47 -113 -55
-227 -156 -298 -263 -42 -63 -44 -70 -32 -96 20 -46 48 -84 63 -84 7 0 34 31
59 68 60 92 117 156 179 200 49 35 72 48 159 86 49 21 201 22 237 1 14 -8 33
-14 42 -15 26 0 138 -71 183 -115 66 -65 195 -246 195 -274 0 -5 7 -14 15 -21
8 -7 15 -22 15 -34 0 -11 7 -30 15 -40 8 -11 15 -31 15 -44 0 -13 6 -45 14
-71 43 -138 51 -203 51 -421 0 -218 -8 -283 -51 -421 -8 -26 -14 -54 -14 -62
0 -8 -6 -28 -14 -44 -7 -15 -21 -46 -31 -68 -9 -22 -21 -47 -26 -55 -4 -8 -17
-32 -29 -54 -34 -63 -120 -173 -146 -186 -13 -8 -24 -17 -24 -21 0 -5 -20 -20
-45 -35 -25 -14 -45 -29 -45 -33 0 -9 -38 -28 -105 -52 -33 -12 -79 -18 -137
-19 -89 0 -106 -8 -77 -37 6 -6 16 -20 23 -31 66 -116 130 -211 138 -206 7 4
8 31 4 70 -6 56 -4 64 13 74 11 5 29 10 40 10 11 0 37 7 58 16 86 37 123 56
128 65 8 12 42 11 51 -2 3 -6 1 -16 -5 -22 -6 -6 -11 -24 -11 -40 0 -15 -5
-38 -12 -50 -6 -12 -14 -48 -19 -82 -4 -33 -12 -91 -19 -130 -22 -124 -6 -391
31 -540 6 -22 14 -58 18 -80 4 -22 12 -49 18 -61 24 -43 7 -48 -167 -41 -88 4
-165 9 -171 12 -5 4 -4 15 3 28 6 12 15 40 19 62 4 22 12 58 18 80 16 64 32
163 38 234 7 80 -4 94 -69 89 l-43 -3 -7 -65 c-14 -135 -46 -294 -73 -370 -35
-95 -39 -119 -25 -145 8 -14 23 -28 35 -31 33 -8 517 -10 546 -2 14 4 31 19
39 33 14 26 10 50 -25 145 -58 161 -93 504 -65 646 6 33 16 86 20 119 15 98
35 160 54 163 9 2 38 -1 65 -7 65 -14 162 5 255 49 52 24 90 52 148 111 43 44
78 84 78 90 0 6 11 25 24 42 21 29 47 81 82 162 14 34 35 107 58 207 22 91 22
404 1 474 -8 27 -15 60 -15 74 0 38 -30 125 -78 230 -57 124 -189 275 -278
319 -27 13 -61 30 -76 38 -14 7 -37 13 -50 13 -12 0 -27 4 -33 8 -13 9 -50 63
-58 84 -3 10 -26 48 -51 85 -127 193 -268 293 -488 347 -78 19 -89 19 -148 0z
m855 -702 c69 -42 156 -148 203 -247 68 -143 96 -280 96 -475 1 -212 -43 -396
-127 -535 -95 -157 -214 -239 -347 -239 -64 1 -140 21 -140 37 0 5 19 34 43
65 37 50 56 79 114 177 42 70 99 219 113 290 4 22 12 53 19 68 6 16 11 43 11
60 0 18 7 64 15 102 9 43 15 125 15 215 0 90 -6 172 -15 215 -8 38 -15 85 -15
103 0 18 -6 48 -14 67 -12 28 -21 81 -17 108 2 11 14 8 46 -11z"/>
<path d="M1360 3875 c-19 -7 -48 -14 -65 -15 -16 0 -41 -7 -55 -15 -14 -8 -33
-14 -42 -15 -27 0 -166 -68 -238 -115 -60 -40 -192 -160 -251 -230 -54 -64
-109 -161 -159 -280 -19 -46 -41 -124 -50 -180 -4 -27 -13 -79 -20 -115 -16
-88 -1 -244 36 -361 8 -26 14 -54 14 -62 0 -8 6 -28 14 -44 7 -15 21 -46 31
-68 9 -22 21 -47 26 -55 4 -8 18 -33 29 -54 47 -87 189 -242 295 -323 52 -40
210 -123 233 -123 10 0 23 -5 29 -11 6 -6 29 -15 50 -20 21 -5 59 -14 86 -21
l47 -13 0 -475 c0 -261 4 -481 8 -488 11 -17 347 -21 364 -4 9 9 12 91 11 299
-2 304 -1 301 -50 305 -63 5 -58 27 -63 -247 l-5 -250 -70 0 -70 0 0 420 0
420 70 0 70 0 3 -92 c2 -70 6 -93 16 -93 8 0 16 8 20 17 3 10 15 32 26 48 23
36 50 93 55 118 2 10 15 27 28 37 13 11 44 52 68 92 24 40 47 75 51 76 5 2 8
9 8 16 0 7 12 31 28 53 39 56 51 75 61 98 5 11 20 36 33 55 13 19 27 42 31 50
4 8 16 29 27 45 11 17 24 40 29 52 5 11 15 24 21 28 28 17 -12 25 -128 26 -70
0 -144 3 -165 7 l-37 7 21 45 c11 25 25 52 30 60 5 8 12 22 16 30 4 8 26 43
50 78 24 35 43 65 43 67 0 2 13 24 30 48 17 25 30 47 30 50 0 3 19 34 42 69
47 70 50 74 93 147 17 28 33 51 38 51 4 0 7 5 7 10 0 6 12 29 27 53 36 55 42
65 78 126 17 28 33 51 38 51 4 0 7 5 7 10 0 6 11 28 25 50 14 22 25 44 25 49
0 5 -55 9 -121 9 -130 1 -154 8 -126 40 9 10 17 25 17 34 0 8 13 34 30 56 16
23 30 46 30 51 0 5 7 14 15 21 26 21 17 37 -50 92 -97 81 -276 166 -395 189
-25 4 -61 13 -80 18 -51 16 -327 13 -370 -4z m283 -1065 l27 -30 0 -278 c0
-153 3 -282 6 -285 4 -4 24 7 44 23 21 17 44 30 52 30 8 0 19 5 25 11 7 7 25
9 46 5 75 -14 107 -87 65 -150 -22 -31 -156 -140 -213 -172 -12 -6 -22 -26
-25 -45 l-5 -34 -100 0 -100 0 -5 157 -5 156 -50 43 c-88 75 -236 223 -251
251 -24 46 -18 92 17 127 54 55 122 35 218 -63 30 -30 58 -53 63 -50 4 3 8 62
8 131 0 115 2 130 22 159 13 18 32 38 43 43 34 18 87 5 118 -29z"/>
</g>
</svg>
